<svg width="37" height="23" viewBox="0 0 37 23" fill="none" xmlns="http://www.w3.org/2000/svg">
<path d="M2.71613 4.29661H35.1314C35.609 4.29661 36.0671 4.10688 36.4048 3.76915C36.7425 3.43143 36.9322 2.97338 36.9322 2.49576C36.9322 2.01815 36.7425 1.5601 36.4048 1.22237C36.0671 0.884648 35.609 0.694916 35.1314 0.694916H2.71613C2.23852 0.694916 1.78046 0.884648 1.44274 1.22237C1.10501 1.5601 0.915283 2.01815 0.915283 2.49576C0.915283 2.97338 1.10501 3.43143 1.44274 3.76915C1.78046 4.10688 2.23852 4.29661 2.71613 4.29661ZM35.1314 18.7034H2.71613C2.23852 18.7034 1.78046 18.8931 1.44274 19.2308C1.10501 19.5686 0.915283 20.0266 0.915283 20.5042C0.915283 20.9819 1.10501 21.4399 1.44274 21.7776C1.78046 22.1154 2.23852 22.3051 2.71613 22.3051H35.1314C35.609 22.3051 36.0671 22.1154 36.4048 21.7776C36.7425 21.4399 36.9322 20.9819 36.9322 20.5042C36.9322 20.0266 36.7425 19.5686 36.4048 19.2308C36.0671 18.8931 35.609 18.7034 35.1314 18.7034ZM35.1314 9.69915H2.71613C2.23852 9.69915 1.78046 9.88889 1.44274 10.2266C1.10501 10.5643 0.915283 11.0224 0.915283 11.5C0.915283 11.9776 1.10501 12.4357 1.44274 12.7734C1.78046 13.1111 2.23852 13.3008 2.71613 13.3008H35.1314C35.609 13.3008 36.0671 13.1111 36.4048 12.7734C36.7425 12.4357 36.9322 11.9776 36.9322 11.5C36.9322 11.0224 36.7425 10.5643 36.4048 10.2266C36.0671 9.88889 35.609 9.69915 35.1314 9.69915Z" fill="white"/>
</svg>
