<svg width="185" height="204" viewBox="0 0 185 204" fill="none" xmlns="http://www.w3.org/2000/svg">
<rect width="185" height="204" fill="black"/>
<path d="M97.2513 59.9223H87.7794C78.3446 59.9223 70.6487 67.9539 70.6487 77.8868V83.668H88.2604C88.9964 83.668 89.7022 83.9746 90.2226 84.5203C90.743 85.0661 91.0354 85.8063 91.0354 86.578C91.0354 87.3498 90.743 88.09 90.2226 88.6357C89.7022 89.1815 88.9964 89.4881 88.2604 89.4881H70.6487V96.0453H88.2604C89.8144 96.0453 91.0354 97.3257 91.0354 98.9553C91.0354 100.546 89.8144 101.865 88.2604 101.865H70.6487V108.384H88.2604C88.9964 108.384 89.7022 108.69 90.2226 109.236C90.743 109.782 91.0354 110.522 91.0354 111.294C91.0354 112.066 90.743 112.806 90.2226 113.352C89.7022 113.897 88.9964 114.204 88.2604 114.204H70.6487V119.558C70.6487 129.491 78.3076 137.523 87.7794 137.523H97.2513C106.723 137.523 114.382 129.491 114.382 119.558V77.8868C114.382 67.9539 106.686 59.9223 97.2513 59.9223ZM114.382 83.668V89.4881H96.7703C96.0343 89.4881 95.3285 89.1815 94.8081 88.6357C94.2877 88.09 93.9953 87.3498 93.9953 86.578C93.9953 85.8063 94.2877 85.0661 94.8081 84.5203C95.3285 83.9746 96.0343 83.668 96.7703 83.668H114.382ZM96.7703 96.0453H114.382V101.865H96.7703C95.2163 101.865 93.9953 100.546 93.9953 98.9553C93.9953 97.3257 95.2163 96.0453 96.7703 96.0453ZM114.382 108.384V114.204H96.7703C96.0343 114.204 95.3285 113.897 94.8081 113.352C94.2877 112.806 93.9953 112.066 93.9953 111.294C93.9953 110.522 94.2877 109.782 94.8081 109.236C95.3285 108.69 96.0343 108.384 96.7703 108.384H114.382Z" fill="white"/>
<path d="M121.782 102.137C122.763 102.137 123.704 102.546 124.398 103.273C125.092 104.001 125.482 104.988 125.482 106.017V122.662C125.482 129.69 122.82 136.43 118.082 141.4C113.343 146.369 106.916 149.162 100.215 149.163L84.4495 149.202C70.5229 149.202 59.2159 137.333 59.2159 122.701V106.056C59.2159 105.027 59.6057 104.04 60.2995 103.312C60.9934 102.585 61.9345 102.176 62.9158 102.176C63.8971 102.176 64.8382 102.585 65.5321 103.312C66.2259 104.04 66.6157 105.027 66.6157 106.056V122.701C66.6157 127.664 68.4929 132.424 71.8356 135.938C75.1782 139.451 79.7132 141.43 84.4458 141.442L100.208 141.403C104.947 141.403 109.493 139.428 112.844 135.914C116.195 132.399 118.078 127.633 118.078 122.662V106.017C118.078 104.988 118.468 104.001 119.162 103.273C119.856 102.546 120.801 102.137 121.782 102.137ZM75.0516 153.043H84.4125V149.202H100.655V153.043H109.979C113.42 153.043 116.565 155.022 118.156 158.165L121.819 165.226C122.596 166.739 121.56 168.563 119.932 168.563H65.0618C63.4338 168.563 62.3978 166.739 63.1748 165.226L66.8377 158.165C68.4657 155.022 71.6477 153.043 75.0516 153.043Z" fill="white"/>
<path d="M130.238 33.0298C130.103 32.9804 129.959 32.9665 129.819 32.9892C129.678 33.0119 129.544 33.0706 129.43 33.1601L129.435 33.1564L120.351 40.0713C120.204 40.1832 120.093 40.3402 120.035 40.5208C119.976 40.7013 119.972 40.8965 120.024 41.0794L123.486 53.4127C122.884 53.2758 122.259 53.2998 121.668 53.4823C120.801 53.7107 120.053 54.2896 119.59 55.0925C119.127 55.8954 118.986 56.8575 119.196 57.7694L119.198 57.777C119.492 58.666 120.109 59.3971 120.915 59.8103C121.721 60.2236 122.65 60.2855 123.499 59.9825L123.493 59.9845C124.36 59.756 125.107 59.1774 125.57 58.3745C126.033 57.5717 126.174 56.6096 125.964 55.6977L122.488 43.3154L130.073 37.6096L132.493 46.2285C131.891 46.0924 131.266 46.1166 130.675 46.299L130.674 46.2993C129.806 46.5273 129.06 47.1058 128.597 47.9088C128.134 48.7117 127.993 49.674 128.204 50.5858L128.206 50.5935C128.499 51.4827 129.116 52.2138 129.922 52.6271C130.728 53.0404 131.658 53.1022 132.507 52.7989L132.5 52.8009L132.597 52.7731C133.337 52.5452 133.982 52.0646 134.431 51.4078C134.881 50.7509 135.107 49.9555 135.076 49.1479L135.074 49.1225C135.086 49.0062 135.076 48.8887 135.045 48.7764L130.797 33.644C130.758 33.5025 130.687 33.373 130.589 33.2664C130.492 33.1598 130.372 33.0792 130.239 33.0314L130.236 33.0303L130.238 33.0298Z" fill="#FF0000"/>
<path d="M55.0169 70.9907C54.9368 70.8672 54.8289 70.7662 54.7028 70.6967C54.5767 70.6272 54.4363 70.5913 54.2938 70.5921L54.2998 70.5923L43.0752 70.4888C42.8933 70.4869 42.7154 70.5442 42.5659 70.6529C42.4164 70.7615 42.3027 70.9161 42.2406 71.0954L38.0325 83.171C37.6261 82.6857 37.1099 82.3152 36.5314 82.0936C35.7042 81.7363 34.7749 81.7358 33.9476 82.0928C33.1203 82.4498 32.4609 83.135 32.113 83.9994L32.1104 84.0069C31.8424 84.9047 31.9242 85.8773 32.3379 86.712C32.7516 87.5468 33.4637 88.1758 34.3183 88.4617L34.3121 88.4593C35.1393 88.8166 36.0676 88.8167 36.8949 88.4597C37.7223 88.1027 38.3817 87.4175 38.7295 86.5531L42.9543 74.4296L52.2882 74.5707L49.3475 83.0095C48.9406 82.5248 48.4244 82.1547 47.846 81.933L47.8451 81.9327C47.018 81.5749 46.0896 81.5745 45.2622 81.9316C44.4349 82.2888 43.7758 82.9744 43.4285 83.8391L43.4259 83.8467C43.1576 84.7445 43.2393 85.7172 43.6531 86.552C44.0668 87.3868 44.779 88.0158 45.6339 88.3014L45.6276 88.299L45.7211 88.337C46.4449 88.6148 47.2365 88.6309 47.97 88.3827C48.7036 88.1346 49.337 87.6364 49.7696 86.9675L49.7823 86.9457C49.8578 86.8597 49.9167 86.7592 49.9556 86.6496L55.1187 71.8335C55.1672 71.6951 55.1832 71.5466 55.1656 71.4003C55.1479 71.254 55.097 71.1143 55.0172 70.993L55.0151 70.99L55.0169 70.9907Z" fill="#FF0000"/>
<path d="M76.5931 15.2281C76.4662 15.1603 76.3253 15.1262 76.1828 15.1289C76.0404 15.1316 75.9008 15.171 75.7763 15.2436L75.7816 15.2407L65.8947 20.8145C65.7344 20.9046 65.6047 21.0447 65.5235 21.2153C65.4423 21.386 65.4136 21.5789 65.4415 21.7674L67.2941 34.4764C66.7151 34.2561 66.0926 34.1918 65.4837 34.2895C64.5946 34.3938 63.7799 34.8623 63.2184 35.5927C62.657 36.3232 62.3935 37.2566 62.4852 38.1899L62.4863 38.1978C62.6634 39.1201 63.1814 39.9313 63.9271 40.4543C64.6728 40.9772 65.5856 41.1693 66.466 40.9886L66.4594 40.9897C67.3485 40.8854 68.1624 40.4171 68.7238 39.6866C69.2852 38.9562 69.5488 38.0227 69.4571 37.0895L67.5971 24.33L75.8439 19.7433L77.1386 28.6248C76.5595 28.4052 75.9371 28.3413 75.3284 28.4389L75.3275 28.439C74.4382 28.5428 73.6242 29.011 73.0629 29.7416C72.5015 30.4721 72.2383 31.4058 72.3308 32.3391L72.3319 32.347C72.5087 33.2694 73.0267 34.0808 73.7725 34.6038C74.5183 35.1268 75.4312 35.3188 76.3117 35.1378L76.305 35.1388L76.4044 35.1249C77.1664 35.0031 77.8677 34.6178 78.3968 34.0301C78.926 33.4424 79.2526 32.6861 79.3249 31.8813L79.326 31.8558C79.3528 31.7424 79.3582 31.6245 79.3421 31.5089L77.069 15.9156C77.048 15.7698 76.9939 15.6314 76.9113 15.5121C76.8287 15.3928 76.72 15.296 76.5943 15.2299L76.5912 15.2284L76.5931 15.2281Z" fill="#FF0000"/>
</svg>
